<?xml version="1.0" encoding="iso-8859-1"?>
<!-- Generator: Adobe Illustrator 19.0.0, SVG Export Plug-In . SVG Version: 6.00 Build 0)  -->
<svg version="1.1" id="Capa_1" xmlns="http://www.w3.org/2000/svg" xmlns:xlink="http://www.w3.org/1999/xlink" x="0px" y="0px"
	 viewBox="0 0 489.2 489.2" style="enable-background:new 0 0 489.2 489.2;" xml:space="preserve">
<g>
	<g>
		<g>
			<path d="M169,421.45c-5.2,0-9.5,4.2-9.5,9.5v27.5c0,5.2,4.2,9.5,9.5,9.5h151.2c5.2,0,9.5-4.2,9.5-9.5v-27.5
				c0-5.2-4.2-9.5-9.5-9.5h-31.4v-44.1h160.9c21.8,0,39.5-17.7,39.5-39.5V60.75c0-21.8-17.7-39.5-39.5-39.5H39.5
				C17.7,21.25,0,38.95,0,60.75v277.1c0,21.8,17.7,39.5,39.5,39.5h160.9v44.1H169z M53.9,323.05v-248h381.4v248H53.9z M203.2,226.55
				H286c5.9,0,10.8-4.8,10.8-10.8v-49.8c0-5.9-4.8-10.8-10.8-10.8h-0.3v-14.2c0-22.5-18.3-40.8-40.8-40.8c-0.5,0-1,0-1.6,0
				c-22.1,0.8-39.2,19.7-39.2,41.8v13.2h-1c-5.9,0-10.8,4.8-10.8,10.8v49.8C192.4,221.75,197.2,226.55,203.2,226.55z M252.6,203.35
				c0.3,1.3-0.7,2.5-2,2.5h-6h-6c-1.3,0-2.3-1.2-2-2.5l2.3-11.4c-2.3-1.9-3.6-5-3-8.3c0.6-3.9,3.8-7,7.8-7.4c0.4,0,0.7-0.1,1.1-0.1
				c4.9,0,9,4,9,9c0,2.8-1.3,5.3-3.3,6.9L252.6,203.35z M222,141.75c0-11.9,8.8-22.4,20.7-23.5c0.7-0.1,1.5-0.1,2.2-0.1
				c12.7,0,23,10.3,23,22.9v14.2l0,0H222V141.75z M289.3,282.55v10.3c0,1.4-1.2,2.6-2.6,2.6h-84.2c-1.4,0-2.6-1.2-2.6-2.6v-10.3
				c0-1.4,1.2-2.6,2.6-2.6h84.2C288.1,279.95,289.3,281.15,289.3,282.55z M319.7,253.35v10.3c0,1.4-1.2,2.6-2.6,2.6h-145
				c-1.4,0-2.6-1.2-2.6-2.6v-10.3c0-1.4,1.2-2.6,2.6-2.6h145C318.6,250.75,319.7,251.95,319.7,253.35z"/>
		</g>
	</g>
</g>
<g>
</g>
<g>
</g>
<g>
</g>
<g>
</g>
<g>
</g>
<g>
</g>
<g>
</g>
<g>
</g>
<g>
</g>
<g>
</g>
<g>
</g>
<g>
</g>
<g>
</g>
<g>
</g>
<g>
</g>
</svg>
